<?xml version="1.0" encoding="utf-8"?><svg version="1.1" id="Layer_1" xmlns="http://www.w3.org/2000/svg" xmlns:xlink="http://www.w3.org/1999/xlink" x="0px" y="0px" viewBox="0 0 68.01 122.88" style="enable-background:new 0 0 68.01 122.88" xml:space="preserve"><g><path d="M0.01,109.59V33.27c-0.05-7.95-0.06-9.07,6.33-16.61c1.59-1.88,3.27-3.58,5.02-5.11c1.76-1.53,3.58-2.89,5.48-4.08 c7.23-4.56,15.33-7.61,23.2-7.46c6.82,0.13,13.42,2.64,19.07,8.59c1.09,1.14,2.08,2.39,2.98,3.75c0.9,1.35,1.7,2.8,2.41,4.37 c3.09,6.8,3.9,15.36,3.36,24.08c-0.68,11.08-3.52,22.5-6.55,30.89c-3.2,8.84-9.08,18.59-16.18,27.27 c-6.93,8.47-15.07,15.98-23.07,20.68c-5.14,3.02-9.71,4.05-13.57,2.58c-3.88-1.48-6.75-5.34-8.41-12.07 C0.03,109.96,0.01,109.77,0.01,109.59L0.01,109.59L0.01,109.59z M12.44,75.55c-0.01,0.22-0.04,0.44-0.06,0.66l-0.03,0.02 c-0.97,0.7-1.85,1.52-2.63,2.46c-1.46,1.77-2.5,3.99-3.08,6.32c-0.59,2.36-0.7,4.86-0.28,7.12c0.61,3.3,2.33,4.52,5.06,3.87 c1.64-0.39,3.61-1.83,5.87-4.18c1.96-2.05,4.35-4.3,6.85-6.66c8.19-7.73,17.62-16.63,19.61-25.22c2.03-8.77-3.12-16.67-23.39-21.71 c0.17-1.92,0.66-3.84,1.45-5.74c2.8-6.77,7.61-10.6,12.72-11.71c2.64-0.58,5.36-0.44,7.91,0.38c2.58,0.83,5,2.35,7.04,4.55 c4.55,4.91,7.11,13.15,5.08,24.46c-0.83,4.64-2.46,8.66-4.68,12.4c-2.25,3.79-5.14,7.32-8.43,10.93c-1.42,1.55-2.85,3.02-4.29,4.49 c-0.63,0.64-1.25,1.28-1.85,1.89l-0.53,0.54c-3.65,3.76-11.35,11.68-11.2,16.35c0.04,1.27,1.1,2.27,2.37,2.23 c1.27-0.04,2.27-1.1,2.23-2.37c-0.09-2.72,6.68-9.69,9.9-13l0.53-0.54c0.62-0.65,1.23-1.26,1.83-1.87c1.52-1.55,3.03-3.1,4.42-4.61 c3.48-3.81,6.54-7.57,8.99-11.69c2.48-4.17,4.3-8.68,5.24-13.93c2.32-12.92-0.79-22.53-6.24-28.41c-2.58-2.78-5.68-4.72-9-5.79 c-3.34-1.07-6.87-1.25-10.29-0.51c-6.49,1.42-12.56,6.16-16,14.47c-1.53,3.7-2.14,7.45-1.75,11.27c0.38,3.78,1.73,7.58,4.13,11.42 c0.67,1.07,2.09,1.4,3.16,0.73c1.07-0.67,1.4-2.09,0.73-3.16c-1.69-2.69-2.75-5.34-3.24-7.95c15.85,4.17,20.08,9.83,18.68,15.87 c-1.68,7.23-10.55,15.61-18.27,22.89c-2.54,2.4-4.96,4.68-7.01,6.82c-1.31,1.37-2.35,2.28-3.09,2.69l0-0.01 c-0.3-1.62-0.21-3.44,0.23-5.19c0.31-1.25,0.79-2.43,1.43-3.46c2.22-0.99,4.07-2.42,5.27-4.22c0.48-0.39,0.78-0.95,0.84-1.56 c0.74-1.77,0.9-3.81,0.27-6.06C15.65,58.99,4.71,65.81,12.44,75.55L12.44,75.55z M10.36,91.53c0.12-0.03,0.25-0.08,0.39-0.15 C10.52,91.47,10.09,91.59,10.36,91.53L10.36,91.53z M4.62,35.5v73.83c1.26,4.93,3.13,7.67,5.5,8.58c2.44,0.93,5.7,0.06,9.61-2.24 c7.49-4.41,15.2-11.54,21.83-19.64c6.8-8.31,12.41-17.59,15.43-25.92c2.91-8.05,5.63-18.99,6.28-29.59 c0.49-8.05-0.22-15.86-2.97-21.92c-0.61-1.34-1.29-2.58-2.05-3.72c-0.75-1.13-1.58-2.17-2.47-3.12C51.06,6.81,45.6,4.71,39.95,4.6 c-6.89-0.14-14.12,2.63-20.66,6.76c-1.7,1.07-3.34,2.29-4.9,3.65c-1.57,1.37-3.08,2.9-4.54,4.62c-5.3,6.25-5.29,7.16-5.25,13.62 C4.61,34.62,4.62,34.86,4.62,35.5L4.62,35.5z" fill="white"/></g></svg>