<svg id="Layer_1" data-name="Layer 1" xmlns="http://www.w3.org/2000/svg" viewBox="0 0 98.06 122.88"><defs><style>.cls-1{fill-rule:evenodd;}</style></defs><title>factory-industry</title><path class="cls-1" d="M15,36.34l-1.75,13.9h19l-1.75-13.9ZM29.2,32a1.63,1.63,0,0,1-3,1.3,6,6,0,0,1-.5-3,7.09,7.09,0,0,1,.86-2.63,1.62,1.62,0,0,1,2.62-.34,8.3,8.3,0,0,0,3.7,2,3.11,3.11,0,0,0,1.89-.11A2.28,2.28,0,0,0,35.92,28a6.54,6.54,0,0,0,.38-3.36,1.63,1.63,0,0,1,3.12-.79,6.73,6.73,0,0,0,5.22,3.36,7.73,7.73,0,0,0,3.08-.18A5.07,5.07,0,0,0,50,25.74c1-1,1.47-2.7,1-5a1.63,1.63,0,0,1,1.28-1.92,1.77,1.77,0,0,1,.51,0,6.17,6.17,0,0,0,6-3.11,5.69,5.69,0,0,0,.64-2.54,4.47,4.47,0,0,0-.6-2.29c-.81-1.35-2.56-2.25-5.36-2a1.63,1.63,0,0,1-1.73-1.13,6.34,6.34,0,0,0-3.08-4.1,4.08,4.08,0,0,0-2.27-.35,4.7,4.7,0,0,0-2.21.91A5.85,5.85,0,0,0,42,8.5a1.63,1.63,0,0,1-3.21.27,7.13,7.13,0,0,0-2.24-3.61,4.33,4.33,0,0,0-2.77-.93,6,6,0,0,0-3,.94A6.88,6.88,0,0,0,28,8.4a1.63,1.63,0,0,1-2.12.91A1.68,1.68,0,0,1,25.35,9a6.85,6.85,0,0,0-4.44-2.15,3.83,3.83,0,0,0-2.14.56,3.71,3.71,0,0,0-1.41,1.71l0,.06a7.56,7.56,0,0,0,.18,5.26,1.64,1.64,0,0,1-1,2.07l-.13,0a4.7,4.7,0,0,0-3.58,3.42V20a4.72,4.72,0,0,0,0,2,4.3,4.3,0,0,0,.81,1.81c1,1.25,2.75,2,5.38,1.63a1.63,1.63,0,0,1,1.61,2.49,12.93,12.93,0,0,0-1.17,2.49,8.43,8.43,0,0,0-.44,2.44,1.63,1.63,0,1,1-3.25-.06,11.32,11.32,0,0,1,.61-3.39l.23-.66A7.77,7.77,0,0,1,11,25.76a7.41,7.41,0,0,1-1.44-3.18,7.89,7.89,0,0,1,.06-3.35l0-.08A7.72,7.72,0,0,1,14,13.9a10,10,0,0,1,.34-6l0-.09A6.9,6.9,0,0,1,17,4.62,7,7,0,0,1,21,3.56,9.33,9.33,0,0,1,26,5.3a10.39,10.39,0,0,1,3.11-2.91A9.3,9.3,0,0,1,33.78,1,7.57,7.57,0,0,1,38.6,2.59,9.23,9.23,0,0,1,40.08,4.1a8.67,8.67,0,0,1,2.23-2.5A8,8,0,0,1,46.06.06,7.31,7.31,0,0,1,50.13.7a9,9,0,0,1,4.36,4.85C58,5.51,60.43,7,61.7,9.15a7.65,7.65,0,0,1,1.06,4,8.88,8.88,0,0,1-1,4A9,9,0,0,1,54.47,22a7.94,7.94,0,0,1-2.08,6,8.26,8.26,0,0,1-3.8,2.21,11.24,11.24,0,0,1-9.37-1.7,8.35,8.35,0,0,1-.35.92,5.44,5.44,0,0,1-2.78,2.77,6.39,6.39,0,0,1-3.85.32A10.28,10.28,0,0,1,29,31.15a3,3,0,0,0,.24.85ZM0,117.06H98.06v5.82H0v-5.82ZM2.47,71l8.41,1L11.75,65h22L35,75.1l60.55,7.6v32.21H2.47V71ZM12.94,53.46l-.86,8.3H33.46l-.86-8.3Zm7.24,33.76H32.8A1.77,1.77,0,0,1,34.57,89v15.88a1.77,1.77,0,0,1-1.77,1.76H20.18a1.76,1.76,0,0,1-1.76-1.76V89a1.76,1.76,0,0,1,1.76-1.76Zm39.48,3H72.29A1.77,1.77,0,0,1,74.05,92v12.88a1.77,1.77,0,0,1-1.76,1.76H59.66a1.77,1.77,0,0,1-1.76-1.76V92a1.78,1.78,0,0,1,1.76-1.76Z"/></svg>