<svg xmlns="http://www.w3.org/2000/svg" shape-rendering="geometricPrecision" text-rendering="geometricPrecision" image-rendering="optimizeQuality" fill-rule="evenodd" clip-rule="evenodd" viewBox="0 0 512 511.997">
    <path fill="#ffffff" fill-rule="nonzero" d="M429.29 418.815a475.448 475.448 0 01-25.832 3.07 767.655 767.655 0 01-2.882 22.909 239.321 239.321 0 0023.563-20.659 237.092 237.092 0 005.151-5.32zm1.142-174.246c8.538 8.538 14.256 19.905 15.624 32.57 15.501.401 31.09.379 46.794.003.613-6.966.929-14.017.929-21.144 0-48.033-14.246-92.747-38.741-130.136-28.759-2.61-57.599-3.005-86.156-.651-.317 13.864-5.843 26.458-14.697 35.903a320.299 320.299 0 0130.586 61.119c.82 2.197 1.615 4.397 2.385 6.603a55.415 55.415 0 014.791-.209c15.001 0 28.599 6.096 38.485 15.942zm14.56 50.71a54.28 54.28 0 01-9.912 20.927 54.968 54.968 0 01-12.325 11.696 54.235 54.235 0 01-15.97 7.524c.995 22.355.36 45.051-1.54 68.01a464.501 464.501 0 0042.003-6.125c21.829-29.497 37.005-64.223 43.289-101.957-15.276.328-30.451.319-45.545-.075zm-56.318 42.106c-13.727-.814-26.086-6.723-35.212-15.883-9.424-9.427-15.414-22.29-15.908-36.529-18.875-3.283-37.69-7.411-56.484-12.497a2072.75 2072.75 0 01-25.669 75.766 54.932 54.932 0 0111.1 8.543c9.846 9.846 15.943 23.457 15.943 38.486 0 1.18-.038 2.35-.113 3.514 33.403 5.881 68.37 8.2 104.54 6.094 1.996-22.831 2.729-45.358 1.803-67.494zm-48.726-70.455a54.411 54.411 0 0113.514-22.361 54.473 54.473 0 0116.074-11.126 337.664 337.664 0 00-1.772-4.876c-7.192-19.269-16.446-38.094-28.079-56.399a54.087 54.087 0 01-25.215 6.2c-1.953 0-3.884-.103-5.784-.304a2172.655 2172.655 0 01-22.18 77.039c17.773 4.789 35.578 8.698 53.442 11.827zm77.612-9.489a36.085 36.085 0 00-23.081-10.506c-7.258-.466-14.265 1.089-20.581 4.726a36.272 36.272 0 00-11.767 10.844c-5.78 8.359-7.661 18.584-5.549 28.364a36.127 36.127 0 009.743 17.808 36.417 36.417 0 0015.926 9.273 36.379 36.379 0 0026.546-2.826 36.48 36.48 0 008.773-6.447c3.389-3.452 5.943-7.74 7.914-12.19 2.958-6.757 3.484-14.782 1.606-21.895-1.79-6.669-4.901-12.488-9.53-17.151zM278.131 416.499l-.1.232c-8.343 19.366-27.622 32.967-50.015 32.967-4.046 0-7.99-.444-11.783-1.283a1954.274 1954.274 0 01-16.8 38.595c18.127 4.425 37.074 6.766 56.565 6.766 45.462 0 87.937-12.762 124.053-34.889 1.925-11.961 3.596-23.857 4.958-35.684-36.965 1.918-72.708-.601-106.878-6.704zm-78.766 25.04a54.595 54.595 0 01-9.834-7.821c-9.846-9.849-15.942-23.447-15.942-38.447 0-3.255.287-6.444.835-9.539-39.906-16.681-78.15-38.495-112.626-64.844-7.186 11.574-14.165 23.742-20.916 36.539a238.328 238.328 0 0046.98 66.708c26.032 26.033 58.079 46.053 93.876 57.811a1956.13 1956.13 0 0017.627-40.407zm-18.782-72.977a54.635 54.635 0 018.948-11.777c9.846-9.845 23.457-15.942 38.485-15.942 3.534 0 6.989.338 10.337.983a2052.876 2052.876 0 0025.21-74.37c-24.721-7.495-49.411-16.712-74.163-27.907-10.247 13.886-26.418 22.158-43.803 22.158a54.079 54.079 0 01-31.96-10.391c-14.493 16.128-28.42 34.026-41.686 53.833 32.025 24.575 68.539 46.419 108.632 63.413zm73.046 1.096c-6.816-6.817-15.973-10.594-25.613-10.594-9.999 0-19.056 4.056-25.603 10.603a36.667 36.667 0 00-3.652 4.266c-4.824 6.644-7.255 14.656-6.917 22.959a36.148 36.148 0 0010.55 24.001c.982.98 2.028 1.903 3.114 2.764 6.538 5.107 14.221 7.821 22.508 7.821a36.171 36.171 0 0025.623-10.585 36.421 36.421 0 005.192-6.572c4.14-6.732 5.959-14.497 5.239-22.386-.792-8.667-4.638-16.459-10.441-22.277zm-59.563-187.162a54.196 54.196 0 015.959 24.783c0 5.574-.842 10.957-2.407 16.027 23.829 10.738 47.593 19.585 71.378 26.79a2153.591 2153.591 0 0022.161-76.961 54.533 54.533 0 01-15.173-10.71v-.037a54.72 54.72 0 01-10.64-15.032 360.866 360.866 0 00-52.766 24.076 359.48 359.48 0 00-18.512 11.064zm-93.179 55.789a54.105 54.105 0 01-9.718-31.006c0-7.145 1.381-13.97 3.884-20.223-17.156-11.389-34.394-23.864-51.729-37.503-16.062 32.026-25.103 68.179-25.103 106.445l.006 1.268c12.099 12.541 25.278 24.777 39.443 36.501 13.742-20.393 28.179-38.842 43.217-55.482zm3.653-66.734a54.918 54.918 0 012.572-2.757c9.846-9.846 23.457-15.942 38.485-15.942 14.547 0 27.773 5.733 37.574 15.057a379.415 379.415 0 0177.187-38.073 54.66 54.66 0 01-.316-5.896 54.19 54.19 0 019.602-30.877c-25.532-21.657-55.955-42.253-91.993-61.629-34.151 11.915-64.749 31.387-89.789 56.428a238.706 238.706 0 00-35.66 45.574c17.551 13.907 34.986 26.582 52.338 38.115zm61.353 5.724a36.172 36.172 0 00-20.296-6.203 36.073 36.073 0 00-23.209 8.416c-5.975 5.014-10.24 11.808-12.021 19.401a36.207 36.207 0 00-.977 8.39c0 5.44 1.196 10.6 3.333 15.226 3.158 6.857 8.344 12.44 14.847 16.19a36.16 36.16 0 0018.027 4.791 36.166 36.166 0 0025.622-10.584c5.18-5.18 8.798-12.03 10.028-19.254.363-2.068.557-4.2.557-6.369 0-4.002-.648-7.855-1.847-11.451-2.488-7.536-7.561-14.18-14.064-18.553zM314.47 69.512c.61 0 1.217.01 1.821.032a2338.934 2338.934 0 008.591-41.19c-21.808-6.587-44.929-10.133-68.884-10.133-18.477 0-36.463 2.106-53.732 6.096C233.002 41.95 259.538 60.546 282.347 80a54.178 54.178 0 0132.123-10.488zm19.66 3.671a54.482 54.482 0 0118.787 12.272h.038a54.428 54.428 0 0113.314 21.735c24.786-2.097 49.761-2.197 74.701-.622a239.572 239.572 0 00-16.831-18.706c-23.094-23.091-50.92-41.452-81.894-53.514a2373.442 2373.442 0 01-8.115 38.835zm5.953 25.144c-12.725-12.731-32.884-13.921-47.008-3.602-2.816 2.04-5.477 4.722-7.526 7.427a36.123 36.123 0 00-7.121 18.299c-.804 8.397 1.293 16.727 5.997 23.722a36.561 36.561 0 0011.498 10.885v-.006a36.182 36.182 0 007.399 3.348c4.722 1.55 9.883 2.053 14.819 1.566a35.867 35.867 0 008.988-2.085 36.187 36.187 0 0014.243-9.68 36.699 36.699 0 003.008-3.818 35.875 35.875 0 005.689-13.777c1.412-7.708.348-15.757-3.164-22.781a36.366 36.366 0 00-6.822-9.498zM255.998 0c70.69 0 134.697 28.658 181.022 74.98C483.342 121.305 512 185.309 512 255.998c0 70.69-28.658 134.694-74.98 181.019-46.325 46.322-110.332 74.98-181.022 74.98-70.689 0-134.693-28.658-181.018-74.98C28.655 390.692 0 326.688 0 255.998c0-42.6 10.412-82.769 28.821-118.106l-.32-.263 1.265-1.536A256.855 256.855 0 0174.98 74.98C121.305 28.655 185.309 0 255.998 0zM19.951 284.797a236.256 236.256 0 0011.977 50.954 604.668 604.668 0 0115.53-26.267 456.961 456.961 0 01-27.507-24.687z"/></svg>