<?xml version="1.0" encoding="utf-8"?><svg version="1.1" id="Layer_1" xmlns="http://www.w3.org/2000/svg" xmlns:xlink="http://www.w3.org/1999/xlink" x="0px" y="0px" viewBox="0 0 104.18 122.88" style="enable-background:new 0 0 104.18 122.88" xml:space="preserve"><g><path d="M10.78,78.63c0.05-0.28,0.09-0.58,0.11-0.87c-2.6-3.37-3-6.44-2.27-8.52c0.39-1.11,1.1-1.96,1.98-2.44 c0.9-0.49,1.96-0.62,3.03-0.28c1.83,0.58,3.71,2.52,4.76,6.31c0.3,1.08,0.42,2.13,0.39,3.11c-0.03,1.02-0.24,1.99-0.58,2.89 c-0.03,0.13-0.07,0.25-0.12,0.37l-0.02,0.04c-0.06,0.13-0.13,0.26-0.21,0.37c-0.58,1.17-1.41,2.21-2.43,3.12 c-1.01,0.89-2.21,1.65-3.53,2.24c-0.18,0.35-0.34,0.72-0.48,1.1c-0.17,0.45-0.32,0.93-0.44,1.41c-0.21,0.86-0.34,1.73-0.38,2.59 c-0.04,0.84,0.02,1.67,0.16,2.44l0.02,0.11c0.26-0.14,0.57-0.35,0.92-0.62c0.62-0.49,1.35-1.17,2.17-2.02 c0.99-1.03,2.07-2.1,3.21-3.2c1.15-1.11,2.33-2.23,3.55-3.37c3.75-3.54,7.78-7.34,11.06-11.14c3.25-3.75,5.77-7.5,6.58-10.97 c0.69-2.96,0-5.81-2.8-8.42c-2.81-2.61-7.7-4.99-15.38-7.01c0.2,1.12,0.51,2.25,0.94,3.39c0.54,1.45,1.27,2.91,2.19,4.38l0.03,0.04 c0.31,0.5,0.39,1.08,0.27,1.61c-0.12,0.53-0.45,1.02-0.95,1.33l-0.01,0c-0.5,0.31-1.08,0.39-1.61,0.27 c-0.52-0.12-0.99-0.44-1.31-0.92l-0.04-0.06c-1.14-1.83-2.04-3.65-2.69-5.47c-0.66-1.83-1.08-3.66-1.26-5.48 c-0.18-1.83-0.13-3.65,0.16-5.46c0.28-1.81,0.8-3.59,1.53-5.37c1.58-3.83,3.75-6.87,6.26-9.14c2.73-2.47,5.86-4.05,9.1-4.76 c1.63-0.36,3.3-0.49,4.96-0.41c1.66,0.08,3.32,0.38,4.92,0.9c1.61,0.52,3.18,1.25,4.64,2.2c1.43,0.92,2.78,2.04,4,3.36 c2.77,2.98,4.91,6.97,5.98,11.9c0.96,4.4,1.07,9.55,0.01,15.42c-0.45,2.53-1.12,4.88-1.97,7.09c-0.85,2.22-1.88,4.3-3.08,6.31 C51,69,49.67,70.9,48.21,72.77c-1.45,1.86-3.03,3.68-4.69,5.51c-0.67,0.73-1.37,1.47-2.09,2.22c-0.67,0.7-1.4,1.44-2.13,2.19 c-0.73,0.8-1.54,1.58-2.3,2.36c-1.58,1.63-4.03,4.15-6.06,6.61c-1.95,2.36-3.51,4.65-3.5,5.94l0,0.06 c0.01,0.58-0.21,1.12-0.58,1.51c-0.36,0.38-0.86,0.63-1.42,0.67l-0.09,0.01c-0.58,0.01-1.12-0.21-1.51-0.58 c-0.38-0.36-0.63-0.86-0.67-1.42l-0.01-0.09c-0.06-2.28,1.78-5.32,4.08-8.26c2.25-2.86,4.95-5.64,6.69-7.43 c0.76-0.78,1.52-1.58,2.29-2.35c0.68-0.7,1.37-1.39,2.09-2.14c0.68-0.71,1.37-1.44,2.05-2.18c1.6-1.75,3.09-3.48,4.45-5.22 c1.36-1.74,2.59-3.5,3.68-5.33c1.08-1.81,2.01-3.69,2.77-5.66c0.76-1.98,1.35-4.07,1.76-6.32c0.93-5.19,0.86-9.72,0.06-13.55 c-0.89-4.23-2.67-7.6-4.98-10.09c-0.97-1.05-2.04-1.94-3.17-2.67c-1.16-0.75-2.39-1.33-3.65-1.73c-1.24-0.4-2.52-0.63-3.81-0.69 c-1.28-0.06-2.58,0.05-3.86,0.32c-2.56,0.56-5.05,1.82-7.22,3.82c-2.03,1.86-3.79,4.36-5.1,7.52c-0.42,1.02-0.75,2.04-1,3.07 c-0.2,0.85-0.34,1.71-0.41,2.56c9.58,2.37,15.64,5.41,19.11,8.87c3.63,3.62,4.44,7.7,3.45,11.98c-0.96,4.15-3.73,8.38-7.25,12.5 c-3.48,4.08-7.7,8.06-11.63,11.77c-1.21,1.15-2.4,2.26-3.5,3.33c-1.11,1.07-2.16,2.11-3.11,3.09c-1.07,1.12-2.07,2.01-2.98,2.68 c-0.95,0.69-1.83,1.14-2.64,1.33c-1.27,0.3-2.33,0.15-3.16-0.5c-0.8-0.62-1.34-1.67-1.62-3.17c-0.2-1.08-0.27-2.21-0.23-3.36 c0.05-1.16,0.21-2.33,0.5-3.47c0.28-1.14,0.68-2.24,1.18-3.28c0.49-1,1.08-1.94,1.77-2.78c0.16-0.19,0.31-0.37,0.46-0.53 c0.11-0.12,0.23-0.25,0.36-0.37C10.66,79.23,10.73,78.94,10.78,78.63L10.78,78.63z M78.95,57.61c-0.04-0.01-0.08-0.02-0.12-0.03 c-0.63-0.2-1.13-0.63-1.43-1.17c-0.3-0.54-0.39-1.19-0.23-1.83c0.01-0.04,0.02-0.09,0.04-0.13c0.2-0.63,0.63-1.13,1.17-1.43 c0.56-0.31,1.24-0.4,1.9-0.21l19.46,5.63c0.04,0.01,0.08,0.02,0.12,0.03c0.63,0.2,1.13,0.63,1.43,1.17 c0.3,0.54,0.39,1.19,0.23,1.83c-0.01,0.04-0.02,0.09-0.04,0.13c-0.2,0.63-0.63,1.13-1.17,1.43c-0.54,0.3-1.19,0.39-1.83,0.23 c-0.04-0.01-0.08-0.02-0.12-0.03L78.95,57.61L78.95,57.61z M82.49,34.44c-0.69,0.01-1.32-0.26-1.77-0.71 c-0.46-0.45-0.74-1.07-0.75-1.76c-0.01-0.69,0.26-1.32,0.71-1.77c0.45-0.46,1.07-0.74,1.76-0.75c6.41-0.09,12.89-0.28,19.29-0.28 c0.66,0.01,1.27,0.28,1.71,0.71c0.46,0.45,0.74,1.07,0.75,1.76v0.07c-0.01,0.66-0.28,1.27-0.71,1.71 c-0.45,0.46-1.07,0.74-1.76,0.75L82.49,34.44L82.49,34.44z M78.9,14.62c-0.59,0.35-1.26,0.42-1.87,0.27 c-0.62-0.16-1.18-0.55-1.53-1.14l-0.01-0.02c-0.35-0.59-0.42-1.26-0.27-1.87c0.16-0.62,0.55-1.18,1.14-1.53l16.71-9.97 c0.59-0.35,1.27-0.44,1.89-0.28c0.6,0.15,1.15,0.53,1.5,1.09l0.06,0.1c0.33,0.58,0.4,1.24,0.25,1.84c-0.15,0.6-0.53,1.15-1.09,1.5 C90.13,7.96,84.49,11.39,78.9,14.62L78.9,14.62z M0.43,110.15c0-23.97-0.98-49.92,0-73.64c-0.05-7.59-0.04-8.67,6.09-15.9 c0.76-0.9,1.55-1.76,2.36-2.59c0.8-0.82,1.63-1.6,2.47-2.33c0.85-0.74,1.71-1.43,2.59-2.09c0.88-0.65,1.77-1.27,2.68-1.84 c3.63-2.29,7.49-4.19,11.42-5.45c3.61-1.16,7.28-1.8,10.9-1.73c3.4,0.07,6.74,0.75,9.92,2.18c2.96,1.34,5.79,3.32,8.4,6.08 c0.52,0.55,1.02,1.13,1.5,1.73c0.48,0.6,0.93,1.22,1.36,1.88c0.43,0.65,0.84,1.33,1.23,2.03c0.38,0.7,0.75,1.42,1.09,2.17 c1.42,3.12,2.33,6.62,2.85,10.34c0.57,4.09,0.65,8.44,0.38,12.83c-0.3,4.97-1.06,10-2.07,14.78c-1.17,5.49-2.68,10.65-4.24,14.98 c-1.52,4.21-3.68,8.64-6.29,13.04c-2.68,4.51-5.84,9-9.29,13.23c-3.4,4.16-7.12,8.08-10.96,11.54c-3.68,3.3-7.49,6.17-11.25,8.38 c-2.44,1.44-4.75,2.4-6.9,2.84c-2.2,0.45-4.25,0.35-6.11-0.36c-1.87-0.71-3.5-2.02-4.86-3.96c-1.33-1.9-2.4-4.42-3.19-7.62 l-0.01-0.03c-0.02-0.08-0.03-0.15-0.04-0.22C0.45,110.32,0.44,110.24,0.43,110.15L0.43,110.15z M4.72,38.73v71.18 c0.62,2.42,1.39,4.3,2.31,5.69c0.89,1.35,1.91,2.21,3.05,2.65c1.16,0.44,2.52,0.47,4.05,0.11c1.59-0.37,3.36-1.14,5.28-2.27 c3.53-2.07,7.11-4.78,10.6-7.92c3.65-3.28,7.19-7.03,10.46-11.03c3.32-4.06,6.35-8.36,8.91-12.66c2.5-4.2,4.54-8.39,5.98-12.36 c1.5-4.15,2.95-9.1,4.07-14.39c0.97-4.59,1.7-9.41,1.99-14.16c0.25-4.09,0.18-8.12-0.33-11.86c-0.46-3.37-1.28-6.53-2.54-9.3 c-0.29-0.64-0.6-1.27-0.93-1.87c-0.33-0.6-0.68-1.18-1.05-1.73c-0.36-0.55-0.75-1.07-1.14-1.57c-0.4-0.5-0.82-0.99-1.25-1.44 c-2.2-2.32-4.57-3.99-7.04-5.11c-2.66-1.2-5.44-1.77-8.27-1.83c-3.17-0.06-6.41,0.51-9.62,1.56c-3.54,1.15-7.03,2.88-10.34,4.97 c-0.82,0.52-1.63,1.07-2.42,1.66c-0.79,0.59-1.56,1.21-2.32,1.87c-0.76,0.66-1.5,1.36-2.23,2.11c-0.73,0.74-1.44,1.53-2.15,2.36 c-2.59,3.05-3.88,4.79-4.5,6.51c-0.61,1.71-0.6,3.51-0.58,6.67C4.71,36.7,4.72,38.72,4.72,38.73L4.72,38.73z" fill="white"/></g></svg>