<?xml version="1.0" standalone="no"?>
<!DOCTYPE svg PUBLIC "-//W3C//DTD SVG 20010904//EN"
 "http://www.w3.org/TR/2001/REC-SVG-20010904/DTD/svg10.dtd">
<svg version="1.0" xmlns="http://www.w3.org/2000/svg"
 width="362.000000pt" height="314.000000pt" viewBox="0 0 362.000000 314.000000"
 preserveAspectRatio="xMidYMid meet">

<g transform="translate(0.000000,314.000000) scale(0.100000,-0.100000)"
fill="#000000" stroke="none">
<path d="M0 1570 l0 -1570 240 0 240 0 0 30 0 30 85 0 85 0 0 -30 0 -30 1485
0 1485 0 0 1570 0 1570 -1810 0 -1810 0 0 -1570z m1982 1310 c124 -28 198 -51
288 -91 332 -147 591 -410 737 -749 44 -103 62 -159 89 -290 25 -119 25 -401
0 -520 -124 -591 -553 -1018 -1141 -1136 -123 -24 -375 -25 -500 0 -554 108
-977 498 -1124 1036 -90 331 -46 715 117 1020 223 417 633 697 1097 750 113
13 331 3 437 -20z"/>
<path d="M1574 2880 c-466 -39 -895 -329 -1114 -753 -175 -339 -200 -751 -68
-1119 11 -32 24 -58 29 -58 5 0 15 13 24 30 14 27 14 34 -5 89 -50 148 -63
238 -63 421 0 144 4 192 22 269 42 183 104 328 199 471 65 98 237 275 332 341
200 140 419 220 658 238 366 29 703 -82 982 -322 119 -103 203 -208 290 -364
45 -79 53 -88 90 -99 51 -15 51 -9 0 91 -137 265 -361 492 -615 619 -130 65
-189 86 -319 118 -71 16 -279 40 -331 36 -11 0 -61 -4 -111 -8z"/>
<path d="M1580 2734 c-164 -21 -295 -60 -435 -128 -357 -175 -612 -514 -680
-906 -20 -118 -20 -315 0 -427 23 -125 54 -223 71 -223 8 0 22 28 35 72 114
390 264 744 400 948 50 75 146 178 204 221 11 7 26 32 34 54 34 100 123 140
211 95 47 -24 69 -54 77 -106 3 -26 16 -49 37 -69 75 -71 150 -195 230 -380
31 -71 38 -81 68 -89 18 -5 50 -22 71 -38 l38 -30 102 35 c238 82 532 146 674
147 34 0 45 5 54 23 6 12 23 34 37 49 l25 28 -33 62 c-206 395 -611 647 -1060
662 -69 2 -141 2 -160 0z"/>
<path d="M1155 2179 c-158 -150 -327 -487 -477 -958 -45 -139 -51 -184 -27
-189 8 -1 92 48 186 111 212 141 459 286 665 390 l158 79 0 39 c0 44 17 84 48
112 20 18 20 19 -20 110 -72 167 -178 337 -210 337 -6 0 -22 -10 -35 -22 -16
-15 -40 -23 -78 -26 -48 -4 -60 -1 -95 23 -22 15 -40 32 -40 36 0 20 -24 6
-75 -42z"/>
<path d="M2626 1829 c-146 -15 -326 -58 -530 -127 -85 -29 -140 -52 -143 -62
-36 -118 -119 -162 -221 -116 l-42 19 -132 -66 c-261 -130 -379 -199 -686
-401 -119 -78 -162 -112 -158 -123 3 -8 6 -17 6 -19 0 -2 441 -4 979 -4 l979
0 6 23 c3 12 21 37 40 56 28 27 45 35 92 40 l57 6 18 55 c40 126 53 222 53
380 0 85 -5 173 -10 195 -9 35 -14 40 -44 45 -48 8 -83 34 -106 75 -21 39 -19
39 -158 24z"/>
<path d="M3027 1785 l-28 -35 12 -87 c7 -55 9 -143 6 -233 -6 -139 -16 -195
-67 -377 -11 -37 -10 -47 8 -84 l20 -41 16 34 c77 167 116 431 96 652 -6 68
-16 143 -23 165 l-12 41 -28 -35z"/>
<path d="M728 852 c-8 -2 -20 -13 -27 -25 -6 -12 -16 -29 -23 -38 -10 -14 -3
-28 41 -82 142 -180 343 -323 561 -401 244 -88 528 -94 785 -16 238 72 477
237 624 433 l42 55 -23 35 -23 36 -971 3 c-534 2 -977 2 -986 0z"/>
<path d="M2835 752 c-35 -3 -45 -10 -80 -60 -62 -87 -203 -222 -304 -291 -156
-107 -311 -172 -501 -211 -92 -19 -127 -21 -290 -17 -203 5 -297 23 -456 87
-213 85 -445 264 -573 443 -31 42 -38 47 -74 47 l-39 0 17 -27 c46 -71 116
-155 190 -228 195 -191 433 -318 710 -375 145 -31 379 -31 530 0 334 68 621
241 827 500 66 82 105 141 91 138 -4 -1 -26 -3 -48 -6z"/>
</g>
</svg>
