<?xml version="1.0" encoding="UTF-8"?>
<!DOCTYPE svg PUBLIC "-//W3C//DTD SVG 1.1//EN" "http://www.w3.org/Graphics/SVG/1.1/DTD/svg11.dtd">
<!-- Creator: CorelDRAW X6 -->
<svg xmlns="http://www.w3.org/2000/svg" xml:space="preserve" width="233.716mm" height="72.857mm" version="1.1" style="shape-rendering:geometricPrecision; text-rendering:geometricPrecision; image-rendering:optimizeQuality; fill-rule:evenodd; clip-rule:evenodd"
viewBox="0 0 21741 6778"
 xmlns:xlink="http://www.w3.org/1999/xlink">
 <defs>
  <style type="text/css">
   <![CDATA[
    .fil0 {fill:#FEFEFE}
   ]]>
  </style>
 </defs>
 <g id="Camada_x0020_1">
  <metadata id="CorelCorpID_0Corel-Layer"/>
  <path class="fil0" d="M10168 4061l0 1459 -1083 0 0 -4007 1313 0c1089,0 1633,394 1633,1184 0,464 -226,823 -679,1077l1167 1746 -1228 0 -849 -1459 -274 0zm0 -813l203 0c378,0 567,-168 567,-502 0,-276 -186,-414 -557,-414l-213 0 0 916z"/>
  <path class="fil0" d="M8794 4924c0,320 -267,579 -597,579 -329,0 -596,-259 -596,-579 0,-320 267,-580 596,-580 330,0 597,260 597,580z"/>
  <polygon class="fil0" points="6311,5529 7418,5529 7418,1462 6311,1462 "/>
  <path class="fil0" d="M5789 4637c0,0 45,335 120,715 -3073,1013 -3213,-1511 -3213,-1511 0,0 -129,-2403 1828,-2420 1849,-29 1591,2435 1591,2435l-2386 0c114,1442 2060,781 2060,781zm-652 -1553c-12,-78 6,-870 -641,-905 -648,-34 -790,905 -790,905l1431 0z"/>
  <path class="fil0" d="M0 5368l215 -737c0,0 1301,563 1448,-108 148,-670 -1676,-603 -1542,-1864 134,-1261 1422,-1328 2401,-966 -54,295 -161,771 -161,771 0,0 -1194,-463 -1234,181 -40,644 1583,389 1569,1771 -13,1382 -1837,1462 -2696,952z"/>
  <path class="fil0" d="M12927 5221c0,261 -49,446 -126,553 -77,108 -210,162 -389,162 -76,0 -166,-7 -232,-20 -66,-14 -102,-26 -205,-37l0 841c206,38 380,58 577,58 476,0 834,-140 1072,-418 237,-279 359,-690 359,-1232l0 -2697 -1056 558 0 2232z"/>
  <polygon class="fil0" points="7727,4036 8782,4036 8782,20 7727,20 "/>
  <path class="fil0" d="M7472 580c0,320 -267,579 -597,579 -329,0 -597,-259 -597,-579 0,-321 268,-580 597,-580 330,0 597,259 597,580z"/>
  <polygon class="fil0" points="13983,1513 12927,1513 12927,2756 13983,2035 "/>
  <path class="fil0" d="M20598 5929c61,-53 120,-108 177,-164 139,-140 267,-292 380,-455l-3109 0 7 9 1 1 7 8 6 7 1 2 3 3 5 5 4 6 1 1 13 16 3 3 1 1 14 18 1 2 6 7 6 7 2 2 3 4 4 5 4 6 3 4 2 2 5 7 0 0 6 8 1 1 7 9 0 0 7 9 1 2 6 8 2 2 5 7 0 0 6 8 0 1 5 6 2 4 5 7 2 2 6 8 1 1 6 10 1 0 6 9 5 8 2 2 2 3 4 6 3 5 4 5 1 2 12 17 5 9 1 1 6 10 1 0 6 9 1 2 5 8 2 3 4 7 3 4 3 6 4 6 2 3 5 8 2 2 5 9 1 1 6 10 0 0 6 10 1 2 5 8 2 3 4 7 0 0 4 8 1 2 4 6 2 4 5 8 1 2 5 9 1 1 5 10 1 1 5 9 1 2 5 8 2 4 0 0 5 10 1 2 3 5 3 6 2 4 5 8 1 2 5 10 0 0 6 11 0 0 5 10 1 2 4 8 2 4 3 7 3 5 0 1 5 10 1 1 2 4 4 8 1 2 4 10 1 0 5 11 2148 0z"/>
  <path class="fil0" d="M18649 6738c9,-1 17,-1 26,-2l-26 2z"/>
  <polygon class="fil0" points="16612,5129 16870,5511 17313,5638 17029,6001 17045,6461 16612,6303 16179,6461 16196,6001 15912,5638 16355,5511 "/>
  <path class="fil0" d="M20374 6107l-1847 0c78,200 133,410 161,628 627,-53 1205,-278 1686,-628z"/>
  <path class="fil0" d="M21539 4586l-4486 0c309,131 588,318 824,546l3394 0c105,-172 195,-355 268,-546z"/>
  <path class="fil0" d="M15182 4377c-25,-75 -46,-150 -65,-224l0 0c180,11 373,6 550,-23 115,-276 562,-557 769,-636 -236,210 -238,356 -246,495 -1,121 76,275 92,387l-1100 1zm3909 -1555c-8,4 -28,21 -79,86 0,0 -3,4 -7,9 -106,140 -242,221 -400,268 -183,54 -581,145 -843,265 181,6 897,78 1166,45 176,-21 360,-91 471,-199 -4,8 -8,15 -11,23l-543 1055 -1570 1c-59,-95 -69,-401 -44,-504 31,-128 265,-302 454,-420 190,-118 537,-210 756,-273 218,-63 322,-107 374,-148 88,-59 162,-170 272,-284 35,-33 65,-65 66,-66 1,0 239,-248 627,-413 98,-42 303,-93 385,-88 83,6 128,27 178,74 6,-84 -11,-163 -37,-244 -28,-83 -105,-254 -364,-204 -44,-89 -248,-56 -436,-3 -189,52 -548,198 -704,251 -156,52 -405,85 -488,38 16,51 65,80 120,100 -16,1 -37,0 -59,-2 -78,-22 -189,-74 -253,-203 -78,-156 -68,-298 -123,-398 -55,-101 -85,-256 -358,-256 -273,0 -881,219 -1410,354 -307,78 -570,158 -893,272 537,-1142 1698,-1932 3043,-1932 1856,0 3360,1504 3360,3360 0,66 -1,131 -5,196l-453 -8 -100 -1666c0,0 1,-154 -80,-242 -58,-15 -116,-28 -175,-38 -121,81 -149,397 -149,397 0,0 -119,855 -171,861 -230,29 -261,173 -261,173 0,0 -124,-212 -274,-116 -112,54 -211,150 -211,150 0,0 -149,-275 -368,36 2,-11 4,-22 4,-34 10,-212 -195,-279 -407,-273zm-4070 613c0,-17 0,-33 0,-49 0,-74 2,-147 7,-220 81,-7 207,-27 393,-63 281,-54 527,-181 717,-204l142 -13c-286,52 -998,403 -1228,532 -10,5 -20,11 -31,17zm15 -369c2,-21 4,-43 6,-64 168,-57 372,-129 618,-216 -116,61 -443,189 -624,280zm1916 1310l-361 0c-3,-79 -7,-239 2,-353 13,-156 78,-286 247,-403 -65,104 -22,344 13,468 32,112 67,220 99,288zm2739 -2516l0 0c-73,19 59,-133 185,-40 0,0 -121,24 -185,40z"/>
 </g>
</svg>
