<?xml version="1.0" encoding="UTF-8"?>
<!DOCTYPE svg PUBLIC "-//W3C//DTD SVG 1.1//EN" "http://www.w3.org/Graphics/SVG/1.1/DTD/svg11.dtd">
<!-- Creator: CorelDRAW X6 -->
<svg xmlns="http://www.w3.org/2000/svg" xml:space="preserve" width="233.716mm" height="72.857mm" version="1.1" style="shape-rendering:geometricPrecision; text-rendering:geometricPrecision; image-rendering:optimizeQuality; fill-rule:evenodd; clip-rule:evenodd"
viewBox="0 0 20944 6529"
 xmlns:xlink="http://www.w3.org/1999/xlink">
 <defs>
  <style type="text/css">
   <![CDATA[
    .fil2 {fill:#006CA8}
    .fil4 {fill:#009B54}
    .fil0 {fill:#3195D1}
    .fil5 {fill:#848688}
    .fil1 {fill:#9CCB48}
    .fil3 {fill:#BDA141}
    .fil6 {fill:#FEFEFE;fill-rule:nonzero}
   ]]>
  </style>
 </defs>
 <g id="Camada_x0020_1">
  <metadata id="CorelCorpID_0Corel-Layer"/>
  <path class="fil0" d="M9795 3912l0 1405 -1043 0 0 -3860 1264 0c1049,0 1574,380 1574,1141 0,447 -218,793 -655,1037l1125 1682 -1183 0 -818 -1405 -264 0zm0 -784l195 0c364,0 547,-161 547,-483 0,-266 -179,-399 -536,-399l-206 0 0 882z"/>
  <path class="fil0" d="M8471 4743c0,308 -257,558 -575,558 -317,0 -574,-250 -574,-558 0,-308 257,-558 574,-558 318,0 575,250 575,558z"/>
  <polygon class="fil0" points="6080,5326 7146,5326 7146,1408 6080,1408 "/>
  <path class="fil0" d="M5577 4467c0,0 43,322 115,689 -2960,976 -3095,-1456 -3095,-1456 0,0 -124,-2315 1761,-2332 1781,-27 1533,2346 1533,2346l-2299 0c110,1389 1985,753 1985,753zm-629 -1497c-11,-74 6,-838 -617,-871 -624,-33 -761,871 -761,871l1378 0z"/>
  <path class="fil0" d="M0 5171l207 -710c0,0 1253,542 1395,-104 143,-646 -1615,-581 -1486,-1796 130,-1214 1370,-1279 2313,-930 -51,284 -155,743 -155,743 0,0 -1150,-446 -1189,174 -38,621 1525,375 1512,1706 -13,1331 -1770,1408 -2597,917z"/>
  <path class="fil0" d="M12453 5029c0,252 -48,430 -121,534 -74,103 -203,155 -375,155 -74,0 -161,-6 -224,-19 -64,-14 -99,-26 -198,-36l0 810c199,37 367,56 557,56 458,0 803,-134 1032,-403 229,-268 345,-664 345,-1187l0 -2597 -1016 537 0 2150z"/>
  <polygon class="fil1" points="7443,3888 8460,3888 8460,19 7443,19 "/>
  <path class="fil1" d="M7198 558c0,309 -258,558 -575,558 -318,0 -575,-249 -575,-558 0,-308 257,-558 575,-558 317,0 575,250 575,558z"/>
  <polygon class="fil1" points="13469,1458 12453,1458 12453,2655 13469,1961 "/>
  <path class="fil2" d="M19842 5711c59,-50 116,-103 170,-158 135,-135 258,-281 367,-438l-2996 0 8 9 1 1 6 7 6 7 1 2 3 3 4 5 4 5 1 1 14 16 2 3 1 1 14 17 1 2 6 7 5 6 2 3 3 4 3 5 4 5 3 3 2 3 5 6 0 0 6 8 1 1 7 9 0 0 6 9 1 1 6 8 2 3 4 6 1 0 5 8 1 1 4 5 3 4 4 7 2 2 6 8 1 1 6 9 0 0 6 9 5 7 2 2 2 3 4 7 3 4 3 5 2 2 11 16 5 9 1 1 6 9 0 0 6 9 1 2 5 8 2 3 4 6 3 4 3 5 4 6 2 4 5 7 1 2 5 9 1 1 6 9 0 1 5 9 2 2 4 8 2 3 4 6 0 0 4 8 1 2 4 6 2 3 4 8 2 2 5 9 0 1 6 10 0 0 5 9 1 2 4 8 2 3 1 1 5 9 0 2 3 5 4 6 1 4 5 7 1 2 5 10 0 0 5 10 0 1 5 9 1 2 4 8 2 4 3 6 3 5 0 1 5 10 0 1 2 3 4 8 1 2 5 10 0 0 5 10 2069 0z"/>
  <path class="fil2" d="M17964 6491c9,-1 17,-2 26,-2l-26 2z"/>
  <polygon class="fil3" points="16003,4940 16251,5309 16678,5431 16404,5780 16420,6224 16003,6072 15586,6224 15601,5780 15328,5431 15755,5309 "/>
  <path class="fil3" d="M19627 5883l-1780 0c75,192 128,395 156,605 604,-51 1160,-268 1624,-605z"/>
  <path class="fil4" d="M20748 4418l-4321 0c298,126 566,306 794,526l3270 0c101,-166 187,-342 257,-526z"/>
  <g id="_855768288">
   <path class="fil2" d="M14625 4217c-24,-73 -45,-145 -63,-216l0 0c174,10 359,5 530,-22 111,-267 542,-537 741,-613 -227,202 -229,343 -237,477 -1,116 73,265 88,373l-1059 1zm3765 -1499c-7,4 -27,21 -76,83 0,0 -3,4 -7,9 -101,135 -232,213 -385,258 -176,52 -559,140 -812,256 174,6 865,75 1124,43 259,-32 538,-173 549,-385 10,-205 -189,-269 -393,-264zm-3920 591c0,-16 -1,-32 -1,-47 0,-71 3,-142 7,-212 78,-7 200,-26 380,-61 270,-52 507,-174 689,-197l138 -12c-276,50 -962,388 -1183,512 -10,6 -20,11 -30,17zm14 -356c2,-20 4,-40 6,-61 162,-55 358,-124 596,-208 -112,59 -427,182 -602,269zm292 -1067c517,-1100 1635,-1861 2931,-1861 1787,0 3237,1449 3237,3237 0,322 -48,642 -143,949l-4159 4c-58,-92 -67,-387 -43,-486 29,-123 255,-291 437,-404 183,-114 517,-203 728,-263 211,-61 311,-103 360,-143 85,-57 157,-164 262,-274 34,-31 64,-63 64,-63 1,-1 230,-239 604,-398 95,-41 292,-90 371,-85 80,5 124,26 172,71 5,-80 -11,-157 -37,-234 -26,-80 -101,-245 -350,-198 -42,-85 -239,-53 -420,-3 -181,51 -528,192 -678,243 -151,50 -390,81 -470,36 16,50 62,77 115,97 -15,0 -35,0 -56,-2 -75,-21 -182,-72 -244,-196 -75,-150 -66,-287 -119,-383 -52,-97 -82,-247 -345,-247 -263,0 -848,211 -1357,341 -297,75 -549,152 -860,262zm1554 2329l-347 1c-3,-76 -8,-231 1,-340 13,-151 76,-276 238,-389 -62,101 -21,332 13,451 30,108 64,212 95,277zm2639 -2423l0 0c-71,18 56,-128 178,-39 0,0 -117,23 -178,39z"/>
   <path class="fil5" d="M18152 4217l524 -1020c265,-571 457,-218 457,-218 0,0 95,-92 203,-144 145,-92 265,111 265,111 0,0 29,-138 251,-166 49,-6 165,-829 165,-829 0,0 27,-305 143,-383 57,10 113,22 169,37 78,84 77,233 77,233l96 1605 442 8c-15,265 -61,521 -136,766l-2656 0z"/>
   <path class="fil6" d="M14562 4001c174,10 359,5 530,-22 111,-267 542,-537 741,-613 -227,202 -229,343 -237,477 -1,117 74,266 88,374l299 0c-3,-76 -8,-231 1,-341 13,-151 76,-276 238,-389 -62,101 -21,332 13,451 30,108 64,214 96,279l312 0c-59,-90 -68,-389 -44,-488 29,-123 255,-291 437,-404 183,-114 517,-203 728,-263 211,-61 311,-103 360,-143 85,-57 157,-164 262,-274 34,-31 64,-63 64,-63 1,-1 230,-239 604,-398 95,-41 292,-90 371,-85 80,5 124,26 172,71 5,-80 -11,-157 -37,-234 -26,-80 -101,-245 -350,-198 -42,-85 -239,-53 -420,-3 -181,51 -528,192 -678,243 -151,50 -390,81 -470,36 16,50 62,77 115,97 -15,0 -35,0 -56,-2 -75,-21 -182,-72 -244,-196 -75,-150 -66,-287 -119,-383 -52,-97 -82,-247 -345,-247 -263,0 -848,211 -1357,341 -297,75 -550,152 -861,262 -156,325 -246,661 -285,1006 161,-55 358,-124 596,-208 -112,59 -427,182 -602,269 -4,36 -6,68 -8,97 78,-7 200,-26 380,-61 270,-52 507,-174 689,-197l138 -12c-276,50 -962,388 -1183,512 -10,6 -20,11 -31,17 4,249 35,479 93,692zm4407 -2209l0 0c-71,18 56,-128 178,-39 0,0 -117,23 -178,39z"/>
   <path class="fil6" d="M18390 2718c-7,4 -27,21 -76,83 0,0 -3,4 -7,9 -101,135 -232,213 -385,258 -176,52 -559,140 -812,256 174,6 865,75 1124,43 259,-32 538,-173 549,-385 10,-205 -189,-269 -393,-264z"/>
  </g>
 </g>
</svg>
